<svg width="368" height="36" viewBox="0 0 368 36" fill="none" xmlns="http://www.w3.org/2000/svg">
<path d="M-0.00012207 35.0166V25.2686L3.50378 24.707V10.8262L-0.00012207 10.2646V0.516602H17.8788L29.3788 18.1934V10.8711L26.5038 10.2646V0.516602H41.5077V10.2646L38.0038 10.8262V35.0166H23.6063L12.1288 18.1934V24.707L15.0038 25.2461V35.0166H-0.00012207ZM43.849 35.0166V24.5947L46.4544 24.0781L52.6761 3.3916H70.1058L76.3724 24.0781L78.9554 24.5947V35.0166H66.9388L65.8158 29.6934H56.9886L55.8656 35.0166H43.849ZM58.3587 22.5957H64.4456L61.391 10.1748L58.3587 22.5957ZM84.3963 35.0166V25.2686L87.9451 24.707V9.1416C86.7622 9.1416 85.7889 9.45605 85.0252 10.085C84.2615 10.6989 83.6177 11.3428 83.0936 12.0166H79.3201V0.516602H110.945V12.0166H107.172C106.663 11.3428 106.019 10.6989 105.24 10.085C104.476 9.45605 103.503 9.1416 102.32 9.1416V24.707L105.869 25.2686V35.0166H84.3963ZM113.668 35.0166V26.0547L116.364 25.5381V12.7578L113.668 12.2412V3.3916H132.064C134.01 3.3916 135.905 3.45898 137.746 3.59375C139.588 3.72852 141.273 4.02799 142.8 4.49219C144.327 4.95638 145.593 5.66016 146.596 6.60352C147.614 7.54688 148.266 8.82715 148.55 10.4443C148.7 11.2829 148.775 12.2038 148.775 13.207C148.775 14.8991 148.498 16.2692 147.944 17.3174C147.405 18.3656 146.656 19.2116 145.698 19.8555C144.739 20.4993 143.624 21.0684 142.351 21.5625C143.1 23.0449 144.095 24.4974 145.338 25.9199C146.581 27.3275 147.727 28.6302 148.775 29.8281V35.0166H135.343C134.43 33.3096 133.539 31.5277 132.67 29.6709C131.817 27.7992 131.135 25.8001 130.626 23.6738H129.885V35.0166H113.668ZM129.885 17.5869C131.607 17.5869 132.94 17.3398 133.883 16.8457C134.826 16.3516 135.298 15.2435 135.298 13.5215C135.298 11.7995 134.819 10.6839 133.861 10.1748C132.917 9.66569 131.592 9.41113 129.885 9.41113V17.5869ZM170.792 35.4209C165.236 35.4209 160.924 34.0508 157.854 31.3105C154.785 28.5553 153.25 24.3776 153.25 18.7773V12.7578L150.554 12.2412V3.3916H168.096V12.2412L165.401 12.7578V16.5088C165.401 16.8232 165.401 17.1377 165.401 17.4521C165.416 17.7666 165.424 18.0661 165.424 18.3506V18.8223C165.424 20.8438 165.805 22.446 166.569 23.6289C167.348 24.8118 168.755 25.4033 170.792 25.4033C172.843 25.4033 174.258 24.8118 175.037 23.6289C175.83 22.431 176.227 20.8138 176.227 18.7773V18.2607C176.227 17.9912 176.22 17.7067 176.205 17.4072C176.205 17.0928 176.205 16.7783 176.205 16.4639V12.7578L173.51 12.2412V3.3916H189.097V12.2412L186.38 12.7578C186.365 12.9824 186.357 13.207 186.357 13.4316C186.357 13.6413 186.357 13.8509 186.357 14.0605V18.7773C186.357 24.0482 185.062 28.1436 182.471 31.0635C179.881 33.9684 175.988 35.4209 170.792 35.4209ZM190.9 35.0166V25.2686L194.448 24.707V10.8262L190.9 10.2646V0.516602H208.823V14.3525L215.18 0.516602H232.991V6.04199C230.91 7.55436 229.001 9.28385 227.264 11.2305C225.527 13.1771 223.94 15.221 222.502 17.3623C224.089 19.5335 225.722 21.7272 227.399 23.9434C229.091 26.1595 230.94 28.151 232.947 29.918V35.0166H215.18L208.823 20.6191V35.0166H190.9ZM235.625 35.0166V26.0547L238.32 25.5381V12.7578L235.625 12.2412V3.3916H254.537V12.2412L251.841 12.7578V25.5381L254.537 26.0547V35.0166H235.625ZM271.365 35.4209C268.58 35.4209 266.005 35.2412 263.639 34.8818C261.288 34.5075 259.132 33.8112 257.17 32.793V23.9209H263.931C264.56 24.7894 265.331 25.5306 266.244 26.1445C267.173 26.7585 268.288 27.0654 269.591 27.0654C270.639 27.0654 271.38 26.7884 271.815 26.2344C272.249 25.6654 272.466 24.8343 272.466 23.7412C270.445 23.5615 268.498 23.2471 266.626 22.7979C264.769 22.3486 263.107 21.6898 261.64 20.8213C260.172 19.9378 259.012 18.7699 258.158 17.3174C257.305 15.8499 256.878 14.0156 256.878 11.8145C256.878 8.86458 257.529 6.54362 258.832 4.85156C260.15 3.15951 261.954 1.9541 264.245 1.23535C266.551 0.516602 269.179 0.157227 272.129 0.157227C275.049 0.157227 277.632 0.381836 279.878 0.831055C282.124 1.28027 284.198 1.94661 286.1 2.83008V11.5898H279.339C278.74 10.7363 277.999 10.0026 277.115 9.38867C276.232 8.75977 275.161 8.44531 273.904 8.44531C272.855 8.44531 272.099 8.76725 271.635 9.41113C271.171 10.04 270.939 10.9085 270.939 12.0166C273.23 12.0915 275.341 12.3311 277.273 12.7354C279.219 13.1396 280.904 13.7985 282.326 14.7119C283.764 15.6104 284.872 16.8307 285.651 18.373C286.444 19.9004 286.841 21.8395 286.841 24.1904C286.841 26.3317 286.444 28.1286 285.651 29.5811C284.857 31.0186 283.756 32.1641 282.349 33.0176C280.941 33.8711 279.302 34.485 277.43 34.8594C275.558 35.2337 273.537 35.4209 271.365 35.4209ZM301.85 35.0391L292.664 10.8037L288.576 10.2646V0.516602H310.228V10.2646L307.757 10.8037L311.643 23.584L315.529 10.8037L313.058 10.2646V0.516602H331.094V10.2646L327.029 10.8037L317.842 35.0391H301.85ZM352.123 35.4209C346.179 35.4209 341.529 33.901 338.175 30.8613C334.836 27.8066 333.166 23.307 333.166 17.3623C333.166 11.5824 334.783 7.2474 338.018 4.35742C341.252 1.45247 345.737 0 351.472 0C354.556 0 357.297 0.24707 359.693 0.741211C362.103 1.22038 364.319 1.93913 366.341 2.89746V13.1621H359.58C358.981 12.3086 358.24 11.5749 357.357 10.9609C356.473 10.332 355.402 10.0176 354.145 10.0176C352.797 10.0176 351.629 10.347 350.641 11.0059C349.667 11.6497 348.911 12.5257 348.372 13.6338C347.833 14.7419 347.564 15.9847 347.564 17.3623C347.564 19.7881 348.11 21.6449 349.203 22.9326C350.311 24.2054 352.026 24.8418 354.347 24.8418C354.946 24.8418 355.515 24.8118 356.054 24.752C356.593 24.6771 357.117 24.5872 357.626 24.4824V21.7646H353.314V15.6104H367.284V32.0068C365.143 32.9053 362.822 33.6989 360.321 34.3877C357.836 35.0765 355.103 35.4209 352.123 35.4209Z" fill="white"/>
</svg>
