<svg width="571" height="36" viewBox="0 0 571 36" fill="none" xmlns="http://www.w3.org/2000/svg">
<path d="M-3.05176e-05 35.0166V23.6963L2.76266 23.1348L9.38864 0.516602H27.9414L34.5898 23.1348L37.3525 23.6963V35.0166H24.5722L23.3593 29.2217H13.9707L12.7802 35.0166H-3.05176e-05ZM15.9023 21.5176H21.4277L18.665 8.5127L15.9023 21.5176ZM39.8061 35.0166V26.0547L42.5014 25.5381V11.9941L39.8061 11.4775V3.3916H67.0737C69.0353 3.85579 70.63 4.62695 71.8578 5.70508C73.0857 6.7832 73.6996 8.44531 73.6996 10.6914C73.6996 11.4701 73.6173 12.3161 73.4526 13.2295C73.3028 14.1429 73.0108 15.0114 72.5766 15.835C72.1424 16.6436 71.5209 17.3249 70.7123 17.8789C69.9037 18.418 68.8481 18.7174 67.5453 18.7773C69.0427 18.8522 70.4203 19.1217 71.6782 19.5859C72.936 20.0352 73.9467 20.7389 74.7104 21.6973C75.4741 22.6556 75.8559 23.9359 75.8559 25.5381C75.8559 27.874 75.3917 29.7383 74.4633 31.1309C73.5499 32.5085 72.2322 33.5042 70.5102 34.1182C68.7882 34.7171 66.7218 35.0166 64.311 35.0166H39.8061ZM56.0229 16.5537H57.9995C59.392 16.5537 60.4627 16.359 61.2114 15.9697C61.9601 15.5654 62.3344 14.652 62.3344 13.2295C62.3344 11.8818 61.9451 11.0358 61.1664 10.6914C60.3878 10.347 59.3321 10.1748 57.9995 10.1748H56.0229V16.5537ZM56.0229 27.335H57.9995C59.392 27.335 60.4627 27.1328 61.2114 26.7285C61.9601 26.3242 62.3344 25.4108 62.3344 23.9883C62.3344 22.6406 61.9451 21.8021 61.1664 21.4727C60.3878 21.1283 59.3321 20.9561 57.9995 20.9561H56.0229V27.335ZM95.8739 35.4209C92.0406 35.4209 88.7089 34.8369 85.8788 33.6689C83.0487 32.501 80.8551 30.6891 79.2978 28.2334C77.7554 25.7777 76.9843 22.6257 76.9843 18.7773C76.9843 15.0039 77.7779 11.9268 79.3652 9.5459C80.9524 7.15007 83.161 5.38314 85.9911 4.24512C88.8362 3.1071 92.1304 2.53809 95.8739 2.53809C99.6174 2.53809 102.912 3.1071 105.757 4.24512C108.602 5.38314 110.818 7.15007 112.405 9.5459C114.007 11.9268 114.809 15.0039 114.809 18.7773C114.809 22.6257 114.037 25.7777 112.495 28.2334C110.953 30.6891 108.767 32.501 105.936 33.6689C103.106 34.8369 99.7522 35.4209 95.8739 35.4209ZM95.8739 25.6279C97.9703 25.6279 99.4003 24.999 100.164 23.7412C100.928 22.4834 101.309 20.8288 101.309 18.7773C101.309 16.7259 100.92 15.1012 100.142 13.9033C99.3778 12.7054 97.9553 12.1064 95.8739 12.1064C93.8375 12.1064 92.4299 12.6904 91.6513 13.8584C90.8876 15.0264 90.5058 16.6286 90.5058 18.665C90.5058 20.7464 90.8652 22.431 91.5839 23.7188C92.3176 24.9915 93.7476 25.6279 95.8739 25.6279ZM136.039 35.4209C130.484 35.4209 126.172 34.0508 123.102 31.3105C120.032 28.5553 118.497 24.3776 118.497 18.7773V12.7578L115.802 12.2412V3.3916H133.344V12.2412L130.649 12.7578V16.5088C130.649 16.8232 130.649 17.1377 130.649 17.4521C130.664 17.7666 130.671 18.0661 130.671 18.3506V18.8223C130.671 20.8438 131.053 22.446 131.817 23.6289C132.595 24.8118 134.003 25.4033 136.039 25.4033C138.091 25.4033 139.506 24.8118 140.285 23.6289C141.078 22.431 141.475 20.8138 141.475 18.7773V18.2607C141.475 17.9912 141.467 17.7067 141.453 17.4072C141.453 17.0928 141.453 16.7783 141.453 16.4639V12.7578L138.757 12.2412V3.3916H154.345V12.2412L151.627 12.7578C151.612 12.9824 151.605 13.207 151.605 13.4316C151.605 13.6413 151.605 13.8509 151.605 14.0605V18.7773C151.605 24.0482 150.31 28.1436 147.719 31.0635C145.129 33.9684 141.235 35.4209 136.039 35.4209ZM162.279 35.0166V26.0547L164.974 25.5381V11.7471C164.241 11.7471 163.5 11.8669 162.751 12.1064C162.017 12.346 161.403 12.6979 160.909 13.1621C160.415 13.6263 160.168 14.2028 160.168 14.8916H156.417V3.3916H187.054V14.8916H183.303C183.303 14.2028 183.048 13.6263 182.539 13.1621C182.045 12.6979 181.431 12.346 180.697 12.1064C179.963 11.8669 179.23 11.7471 178.496 11.7471V25.5381L181.191 26.0547V35.0166H162.279ZM203.348 35.0166V25.2686L206.852 24.707V10.8262L203.348 10.2646V0.516602H221.227L232.727 18.1934V10.8711L229.852 10.2646V0.516602H244.856V10.2646L241.352 10.8262V35.0166H226.955L215.477 18.1934V24.707L218.352 25.2461V35.0166H203.348ZM247.198 35.0166V24.5947L249.803 24.0781L256.025 3.3916H273.454L279.721 24.0781L282.304 24.5947V35.0166H270.287L269.164 29.6934H260.337L259.214 35.0166H247.198ZM261.707 22.5957H267.794L264.74 10.1748L261.707 22.5957ZM287.745 35.0166V25.2686L291.294 24.707V9.1416C290.111 9.1416 289.137 9.45605 288.374 10.085C287.61 10.6989 286.966 11.3428 286.442 12.0166H282.669V0.516602H314.294V12.0166H310.52C310.011 11.3428 309.367 10.6989 308.589 10.085C307.825 9.45605 306.852 9.1416 305.669 9.1416V24.707L309.218 25.2686V35.0166H287.745ZM317.017 35.0166V26.0547L319.712 25.5381V12.7578L317.017 12.2412V3.3916H335.412C337.359 3.3916 339.253 3.45898 341.095 3.59375C342.937 3.72852 344.621 4.02799 346.149 4.49219C347.676 4.95638 348.941 5.66016 349.945 6.60352C350.963 7.54688 351.614 8.82715 351.899 10.4443C352.048 11.2829 352.123 12.2038 352.123 13.207C352.123 14.8991 351.846 16.2692 351.292 17.3174C350.753 18.3656 350.004 19.2116 349.046 19.8555C348.088 20.4993 346.972 21.0684 345.699 21.5625C346.448 23.0449 347.444 24.4974 348.687 25.9199C349.93 27.3275 351.075 28.6302 352.123 29.8281V35.0166H338.692C337.778 33.3096 336.887 31.5277 336.019 29.6709C335.165 27.7992 334.484 25.8001 333.975 23.6738H333.234V35.0166H317.017ZM333.234 17.5869C334.956 17.5869 336.288 17.3398 337.232 16.8457C338.175 16.3516 338.647 15.2435 338.647 13.5215C338.647 11.7995 338.168 10.6839 337.209 10.1748C336.266 9.66569 334.941 9.41113 333.234 9.41113V17.5869ZM374.14 35.4209C368.585 35.4209 364.272 34.0508 361.203 31.3105C358.133 28.5553 356.598 24.3776 356.598 18.7773V12.7578L353.903 12.2412V3.3916H371.445V12.2412L368.75 12.7578V16.5088C368.75 16.8232 368.75 17.1377 368.75 17.4521C368.765 17.7666 368.772 18.0661 368.772 18.3506V18.8223C368.772 20.8438 369.154 22.446 369.918 23.6289C370.696 24.8118 372.104 25.4033 374.14 25.4033C376.192 25.4033 377.607 24.8118 378.385 23.6289C379.179 22.431 379.576 20.8138 379.576 18.7773V18.2607C379.576 17.9912 379.568 17.7067 379.553 17.4072C379.553 17.0928 379.553 16.7783 379.553 16.4639V12.7578L376.858 12.2412V3.3916H392.446V12.2412L389.728 12.7578C389.713 12.9824 389.706 13.207 389.706 13.4316C389.706 13.6413 389.706 13.8509 389.706 14.0605V18.7773C389.706 24.0482 388.411 28.1436 385.82 31.0635C383.23 33.9684 379.336 35.4209 374.14 35.4209ZM394.248 35.0166V25.2686L397.797 24.707V10.8262L394.248 10.2646V0.516602H412.172V14.3525L418.528 0.516602H436.34V6.04199C434.259 7.55436 432.349 9.28385 430.612 11.2305C428.875 13.1771 427.288 15.221 425.851 17.3623C427.438 19.5335 429.07 21.7272 430.747 23.9434C432.439 26.1595 434.289 28.151 436.295 29.918V35.0166H418.528L412.172 20.6191V35.0166H394.248ZM438.973 35.0166V26.0547L441.669 25.5381V12.7578L438.973 12.2412V3.3916H457.885V12.2412L455.19 12.7578V25.5381L457.885 26.0547V35.0166H438.973ZM474.714 35.4209C471.929 35.4209 469.353 35.2412 466.987 34.8818C464.636 34.5075 462.48 33.8112 460.519 32.793V23.9209H467.279C467.908 24.7894 468.679 25.5306 469.593 26.1445C470.521 26.7585 471.637 27.0654 472.94 27.0654C473.988 27.0654 474.729 26.7884 475.163 26.2344C475.597 25.6654 475.815 24.8343 475.815 23.7412C473.793 23.5615 471.846 23.2471 469.975 22.7979C468.118 22.3486 466.456 21.6898 464.988 20.8213C463.521 19.9378 462.36 18.7699 461.507 17.3174C460.653 15.8499 460.227 14.0156 460.227 11.8145C460.227 8.86458 460.878 6.54362 462.181 4.85156C463.498 3.15951 465.303 1.9541 467.594 1.23535C469.9 0.516602 472.528 0.157227 475.478 0.157227C478.398 0.157227 480.981 0.381836 483.227 0.831055C485.473 1.28027 487.547 1.94661 489.448 2.83008V11.5898H482.688C482.089 10.7363 481.347 10.0026 480.464 9.38867C479.58 8.75977 478.51 8.44531 477.252 8.44531C476.204 8.44531 475.448 8.76725 474.983 9.41113C474.519 10.04 474.287 10.9085 474.287 12.0166C476.578 12.0915 478.69 12.3311 480.621 12.7354C482.568 13.1396 484.252 13.7985 485.675 14.7119C487.112 15.6104 488.22 16.8307 488.999 18.373C489.793 19.9004 490.19 21.8395 490.19 24.1904C490.19 26.3317 489.793 28.1286 488.999 29.5811C488.205 31.0186 487.105 32.1641 485.697 33.0176C484.29 33.8711 482.65 34.485 480.778 34.8594C478.907 35.2337 476.885 35.4209 474.714 35.4209ZM505.199 35.0391L496.012 10.8037L491.924 10.2646V0.516602H513.577V10.2646L511.106 10.8037L514.992 23.584L518.878 10.8037L516.407 10.2646V0.516602H534.443V10.2646L530.378 10.8037L521.191 35.0391H505.199ZM555.472 35.4209C549.527 35.4209 544.878 33.901 541.523 30.8613C538.184 27.8066 536.515 23.307 536.515 17.3623C536.515 11.5824 538.132 7.2474 541.366 4.35742C544.601 1.45247 549.085 0 554.82 0C557.905 0 560.645 0.24707 563.041 0.741211C565.452 1.22038 567.668 1.93913 569.689 2.89746V13.1621H562.929C562.33 12.3086 561.589 11.5749 560.705 10.9609C559.822 10.332 558.751 10.0176 557.493 10.0176C556.146 10.0176 554.978 10.347 553.989 11.0059C553.016 11.6497 552.26 12.5257 551.721 13.6338C551.182 14.7419 550.912 15.9847 550.912 17.3623C550.912 19.7881 551.459 21.6449 552.552 22.9326C553.66 24.2054 555.374 24.8418 557.695 24.8418C558.294 24.8418 558.863 24.8118 559.402 24.752C559.941 24.6771 560.465 24.5872 560.975 24.4824V21.7646H556.662V15.6104H570.633V32.0068C568.492 32.9053 566.171 33.6989 563.67 34.3877C561.184 35.0765 558.451 35.4209 555.472 35.4209Z" fill="white"/>
</svg>
